<svg width="200" height="200" viewBox="0 0 200 200" fill="none" xmlns="http://www.w3.org/2000/svg">
<path d="M101 132C106.502 136.095 108.018 141.683 109.961 148C112.768 156.105 117.105 160.768 124.586 164.848C127.333 166.159 130.055 167.225 133 168C132.014 170.542 131.356 171.78 129.004 173.23C118.169 177.478 108.342 178.065 97.3633 174.031C89.7478 170.662 85.5598 165.815 82.125 158.313C80.1141 152.22 79.7241 144.828 81.7617 138.715C83.9099 134.716 86.528 131.79 90.8828 130.398C94.524 129.713 97.6861 130.529 101 132Z" fill="#60A5FA"/>
<path d="M63.125 82.75C66.7871 85.616 68.4934 87.3716 69.875 91.8125C70.0886 97.2587 68.1713 100.709 64.5625 104.688C60.835 107.543 56.4672 108.541 52.0391 109.914C44.6662 112.549 38.605 116.96 35 124C33.8324 126.959 32.8545 129.936 32 133C28.6585 131.634 27.306 130.473 25.8125 127.188C21.8111 117.279 22.2305 106.895 26 97C29.4962 89.5245 34.5656 85.435 42 82C48.3382 79.8873 57.1796 79.5036 63.125 82.75Z" fill="#60A5FA"/>
<path d="M139 126C148.02 130.205 154.303 131.505 163.813 128.063C164.706 127.703 165.599 127.343 166.52 126.973C168.677 126.127 170.742 125.5 173 125C170.843 136.353 166.689 144.391 157 151C149.35 155.058 141.917 157.488 133.281 155.316C125.465 152.729 119.639 149.381 115.563 142.063C113.332 137.015 113.314 132.98 115.125 127.75C121.447 118.478 130.683 121.971 139 126Z" fill="#60A5FA"/>
<path d="M125 27C136.353 29.157 144.391 33.3115 151 43C155.058 50.6497 157.488 58.0828 155.316 66.7188C152.729 74.5346 149.381 80.3609 142.062 84.4375C137.015 86.6682 132.98 86.6855 127.75 84.875C124.348 82.5556 123.342 80.8777 122 77C121.168 70.7009 123.332 66.5068 126 61C130.204 51.9802 131.505 45.6966 128.062 36.1875C127.703 35.2942 127.343 34.4009 126.973 33.4805C126.127 31.3231 125.5 29.2581 125 27Z" fill="#60A5FA"/>
<path d="M168 67C170.542 67.9859 171.78 68.6436 173.23 70.9961C177.478 81.8311 178.065 91.6584 174.031 102.637C170.662 110.252 165.815 114.44 158.312 117.875C152.076 119.917 144.602 120.444 138.457 117.98C134.247 115.442 131.634 113.146 130.187 108.25C129.941 103.98 130.905 101.716 133 98C136.613 94.0162 139.696 92.6509 144.812 91.0625C154.292 88.0906 160.041 84.2284 164.848 75.4141C166.159 72.6674 167.225 69.9454 168 67Z" fill="#60A5FA"/>
<path d="M77.1172 49.3203C82.5858 53.6154 85.6044 58.7222 86.4375 65.625C85.9397 69.4655 85.1847 71.7957 83 75C78.6868 78.2612 74.965 78.4039 69.7969 77.7227C65.4158 76.5907 61.6157 74.5437 57.6641 72.375C51.7535 69.3244 45.4775 68.9661 39.1094 70.8594C37.223 71.5554 35.3456 72.2764 33.4805 73.0273C31.3231 73.8733 29.2581 74.5 27 75C29.157 63.6474 33.3115 55.6094 43 49C54.6927 42.7969 65.5459 42.1042 77.1172 49.3203Z" fill="#60A5FA"/>
<path d="M110.312 30.1875C117.344 37.5463 119.37 44.9989 119.285 54.9492C118.787 60.2783 116.818 64.1214 113.125 67.9375C108.851 70.0744 106.038 70.3097 101.438 68.9375C93.982 64.7353 92.5126 59.8627 90.0859 52.0391C87.4514 44.6662 83.0403 38.605 76 35C73.0407 33.8324 70.0636 32.8545 67 32C67.9879 29.4934 68.6427 28.2251 70.9531 26.7695C71.7111 26.4537 72.4691 26.1379 73.25 25.8125C73.9977 25.4889 74.7453 25.1654 75.5156 24.832C87.4256 20.8433 100.029 23.3967 110.312 30.1875Z" fill="#60A5FA"/>
<path d="M72.25 115.125C75.7438 117.507 76.7478 118.949 78 123C78.5518 130.371 75.8592 135.987 72.375 142.336C69.3244 148.247 68.9662 154.523 70.8594 160.891C71.5554 162.777 72.2764 164.654 73.0274 166.52C73.8733 168.677 74.5 170.742 75 173C63.6474 170.843 55.6094 166.689 49 157C44.9418 149.35 42.5122 141.917 44.6836 133.281C47.271 125.465 50.6194 119.639 57.9375 115.563C62.9855 113.332 67.0197 113.314 72.25 115.125Z" fill="#60A5FA"/>
</svg>
